# xmcd
#
# Track frame offsets: 
#        150
#        12831
#        27640
#        40950
#        53000
#        62096
#        73361
#        85020
#        94072
#        105266
#        113586
#        127398
#        141187
#        151172
#        162717
#        178972
#        190631
#        205134
#        215381
#        225162
#
# Disc length: 3160 seconds
#
# Revision: 1
# Processed by: cddbd v1.5.2PL0 Copyright (c) Steve Scherf et al.
# Submitted via: ExactAudioCopy v0.99pb4
#
DISCID=150c5614
DTITLE=Thom Bresh - Wires to the Wood
DYEAR=1999
DGENRE=Instrumental
TTITLE0=MrGuitar
TTITLE1=Dandy
TTITLE2=BBQ
TTITLE3=Long Lost John
TTITLE4=Christian and Nicole
TTITLE5=Happy Again
TTITLE6=Buster Upper
TTITLE7=Midnight
TTITLE8=Janets Planet
TTITLE9=Me and Ole Paul
TTITLE10=Wires
TTITLE11=Mira McGuire
TTITLE12=Take Another Swing
TTITLE13=Marcels Thumb
TTITLE14=Muhlenberg Moon
TTITLE15=My Brother Thom
TTITLE16=Heathers Hideaway
TTITLE17=Cold Cold Heart
TTITLE18=Clawin
TTITLE19=Diana
EXTD=
EXTT0=
EXTT1=
EXTT2=
EXTT3=
EXTT4=
EXTT5=
EXTT6=
EXTT7=
EXTT8=
EXTT9=
EXTT10=
EXTT11=
EXTT12=
EXTT13=
EXTT14=
EXTT15=
EXTT16=
EXTT17=
EXTT18=
EXTT19=
PLAYORDER=
